<?xml version="1.0" encoding="utf-8"?>
<!-- Svg Vector Icons : http://www.onlinewebfonts.com/icon -->
<!DOCTYPE svg PUBLIC "-//W3C//DTD SVG 1.1//EN" "http://www.w3.org/Graphics/SVG/1.1/DTD/svg11.dtd">
<svg version="1.1" xmlns="http://www.w3.org/2000/svg" xmlns:xlink="http://www.w3.org/1999/xlink" x="0px" y="0px" viewBox="0 0 1000 1000" enable-background="new 0 0 1000 1000" xml:space="preserve">
<metadata> Svg Vector Icons : http://www.onlinewebfonts.com/icon </metadata>
<g><g transform="translate(0.000000,511.000000) scale(0.100000,-0.100000)"><path d="M4641,4993.5c-262.7-23.3-468.9-54.5-661.5-95.3C2098.1,4499.3,596.1,2997.3,197.3,1115.9C117.5,742.3,100,543.9,100,104.2c0-439.7,17.5-638.1,97.3-1011.7c389.1-1848.3,1871.7-3352.3,3704.4-3764.7c410.5-93.4,626.5-114.8,1089.5-114.8c572,0,939.7,52.5,1457.3,214c754.9,235.4,1408.6,634.3,1996.2,1223.8c480.5,480.6,799.6,947.5,1058.4,1548.7c225.7,525.3,354.1,1091.5,383.3,1688.8L9900,147L7470,2577L5039.9,5007.1l-165.4-3.9C4783.1,5003.2,4678,4997.4,4641,4993.5z M4874.5,2386.4c0-2175.2,1.9-2369.7,33.1-2402.8c29.2-33.1,130.4-35,2383.4-35h2350.3v-105.1c0-303.5-108.9-859.9-245.1-1262.7c-457.2-1346.4-1529.3-2418.4-2881.5-2881.5c-507.8-173.1-953.3-245.1-1523.4-245.1c-570.1,0-1015.6,72-1523.4,245.1c-811.3,278.2-1564.3,801.6-2093.5,1453.4C761.5-2092.4,389.9-1121.6,343.2-162.4C279,1215.1,749.8,2458.3,1693.4,3402c694.6,694.6,1607.1,1159.6,2558.5,1301.6c289.9,42.8,303.5,44.8,472.8,48.6l149.8,1.9V2386.4z M7300.7,2376.6c1190.7-1190.7,2165.5-2171.3,2165.5-2181c0-7.8-978.7-11.7-2173.3-9.7l-2175.2,5.8l-5.8,2175.2c-1.9,1194.6,1.9,2173.2,9.7,2173.2C5131.3,4540.1,6111.9,3565.4,7300.7,2376.6z"/><path d="M2598.2-1092.4c-204.3-58.4-326.9-179-367.7-363.8c-40.9-184.8,23.3-361.9,173.2-472.8c37-27.2,157.6-83.7,270.4-128.4c237.4-91.4,324.9-149.8,365.8-245.2c33.1-83.7,7.8-180.9-64.2-237.4c-101.2-79.8-410.5-72-614.8,15.6l-87.5,37l-42.8-118.7c-21.4-66.2-40.9-126.5-40.9-134.3c0-23.3,239.3-93.4,395-112.8c167.3-23.3,391.1-1.9,515.6,48.6c165.4,70,274.3,235.4,276.3,420.2c0,268.5-118.7,408.6-470.8,544.8c-264.6,103.1-365.8,184.8-365.8,295.7c0,50.6,15.6,89.5,56.4,134.3c48.6,54.5,68.1,62.3,180.9,70c110.9,7.8,188.7-5.8,395-64.2c33.1-9.7,46.7,5.8,83.7,101.2c40.9,107,40.9,114.8,9.7,138.1C3152.7-1082.7,2779.1-1041.8,2598.2-1092.4z"/><path d="M5699.5-1084.6c-245.2-58.4-396.9-241.3-396.9-478.6c0-241.2,110.9-361.9,451.4-492.2c280.2-107,375.5-188.7,375.5-317.1c0-165.4-134.2-241.3-389.1-221.8c-75.9,5.8-188.7,29.2-252.9,50.6c-62.3,23.3-120.6,40.9-128.4,40.9s-31.1-52.5-52.5-114.8c-44.7-134.2-42.8-136.2,103.1-184.8c317.1-101.2,686.8-75.9,879.4,64.2c221.8,159.5,217.9,572-5.8,749.1c-38.9,31.1-173.2,99.2-297.7,151.8c-254.9,105-311.3,142-350.2,219.8c-37,75.9-7.8,179,62.2,231.5c75.9,56.4,346.3,56.4,492.3-2l97.3-38.9l42.8,118.7c40.9,112.9,42.8,120.6,9.7,144C6238.4-1092.4,5864.8-1043.7,5699.5-1084.6z"/><path d="M7032.2-1088.5c-182.9-52.5-301.6-147.9-363.8-291.8c-35-79.8-29.2-295.7,7.8-375.5c42.8-91.4,186.8-212.1,295.7-252.9c398.8-145.9,500-219.9,500-367.7c0-161.5-136.2-237.4-389.1-217.9c-75.9,5.8-188.7,29.2-252.9,50.6c-62.3,23.3-120.7,40.9-128.4,40.9c-11.7,0-95.3-210.1-95.3-239.3c0-21.4,249-91.5,402.7-112.8c321-42.8,605.1,46.7,716,223.7c46.7,77.8,58.4,120.6,64.2,239.3c7.8,122.6,2,157.6-42.8,247.1c-60.3,124.5-184.8,217.9-387.2,293.8c-276.3,103.1-375.5,171.2-394.9,270.4c-38.9,214,217.9,309.3,538.9,200.4l128.4-42.8l42.8,116.7c38.9,110.9,40.8,118.7,7.8,142C7575-1086.5,7195.6-1041.8,7032.2-1088.5z"/><path d="M4065.1-1290.8c-155.6-338.5-591.5-1457.2-591.5-1523.4c0-11.7,62.3-19.5,153.7-19.5h151.8l73.9,204.3l72,204.3h365.8h363.8l75.9-204.3l73.9-204.3H4966c89.5,0,161.5,7.8,161.5,15.6c0,56.4-484.5,1286.1-632.3,1605.1l-50.6,110.9h-145.9h-145.9L4065.1-1290.8z M4407.6-1718.9c56.4-147.9,118.7-309.3,138.1-359.9l37-93.4h-289.9h-289.9l93.4,249c151.8,400.8,179,470.8,194.6,470.8C4298.6-1452.3,4351.1-1572.9,4407.6-1718.9z"/></g></g>
</svg>